<?xml version="1.0" standalone="no"?>
<!DOCTYPE svg PUBLIC "-//W3C//DTD SVG 20010904//EN"
 "http://www.w3.org/TR/2001/REC-SVG-20010904/DTD/svg10.dtd">
<svg version="1.0" xmlns="http://www.w3.org/2000/svg"
 width="512.000000pt" height="512.000000pt" viewBox="0 0 512.000000 512.000000"
 preserveAspectRatio="xMidYMid meet">

<g transform="translate(0.000000,512.000000) scale(0.100000,-0.100000)"
fill="#000000" stroke="none">
<path d="M0 2560 l0 -2560 2560 0 2560 0 0 2560 0 2560 -2560 0 -2560 0 0
-2560z m1380 1010 l0 -150 -245 0 -245 0 0 -715 0 -715 -175 0 -175 0 0 715 0
715 -250 0 -250 0 0 150 0 150 670 0 670 0 0 -150z m3220 -125 l0 -155 185 0
185 0 0 -130 0 -130 -186 0 -185 0 3 -332 c3 -370 5 -378 71 -418 43 -26 128
-26 186 0 73 34 74 33 121 -102 49 -139 52 -129 -48 -174 -135 -61 -369 -54
-482 14 -81 50 -147 147 -169 250 -7 34 -11 183 -11 407 l0 355 -100 0 -100 0
0 130 0 130 100 0 100 0 0 129 0 129 68 11 c37 6 103 17 147 25 44 8 88 14 98
15 15 1 17 -13 17 -154z m-2226 -150 c181 -48 307 -177 353 -361 23 -94 25
-350 3 -364 -9 -6 -187 -10 -433 -10 l-419 0 7 -32 c19 -98 40 -144 90 -194
59 -61 121 -84 225 -84 122 0 216 47 270 135 12 19 26 35 32 35 8 0 215 -128
236 -146 10 -8 -60 -107 -114 -160 -106 -105 -241 -153 -429 -153 -347 0 -571
171 -637 488 -16 78 -19 120 -15 226 6 148 22 219 73 323 105 215 318 329 594
317 58 -2 132 -12 164 -20z m1281 0 c33 -8 85 -28 115 -42 54 -26 150 -106
150 -125 0 -12 -172 -198 -183 -198 -5 0 -28 16 -51 35 -64 52 -130 78 -216
83 -95 5 -151 -9 -184 -49 -38 -44 -35 -92 7 -133 34 -34 43 -37 282 -95 198
-47 298 -109 352 -219 26 -53 28 -66 28 -172 -1 -103 -3 -121 -27 -172 -68
-146 -218 -232 -428 -245 -254 -16 -505 75 -590 213 l-22 34 93 100 c52 55 99
100 105 100 7 0 36 -24 66 -52 115 -112 285 -154 411 -100 90 37 89 159 -2
206 -14 8 -98 32 -186 55 -187 48 -272 86 -337 153 -64 66 -90 137 -90 248 0
107 26 180 88 249 56 63 161 117 265 136 91 18 269 13 354 -10z"/>
<path d="M2123 3049 c-105 -13 -184 -87 -218 -203 -8 -27 -15 -53 -15 -58 0
-4 121 -8 268 -8 l269 0 -8 56 c-21 159 -127 234 -296 213z"/>
</g>
</svg>
